<mxfile host="app.diagrams.net" agent="Mozilla/5.0 (Macintosh; Intel Mac OS X 10_15_7) AppleWebKit/537.36 (KHTML, like Gecko) Chrome/133.0.0.0 Safari/537.36" version="26.0.13">
  <diagram name="Sayfa -1" id="T5c-29nnTJdJgavPYzRY">
    <mxGraphModel dx="2574" dy="900" grid="1" gridSize="10" guides="1" tooltips="1" connect="1" arrows="1" fold="1" page="1" pageScale="1" pageWidth="1169" pageHeight="827" math="0" shadow="0">
      <root>
        <mxCell id="0" />
        <mxCell id="1" parent="0" />
        <mxCell id="g16Wq1d4LQn0EkF3N1o3-5" value="&lt;div&gt;&lt;br&gt;&lt;/div&gt;" style="points=[[0,0],[0.25,0],[0.5,0],[0.75,0],[1,0],[1,0.25],[1,0.5],[1,0.75],[1,1],[0.75,1],[0.5,1],[0.25,1],[0,1],[0,0.75],[0,0.5],[0,0.25]];outlineConnect=0;html=1;whiteSpace=wrap;fontSize=12;fontStyle=0;container=1;pointerEvents=0;collapsible=0;recursiveResize=0;shape=mxgraph.aws4.group;grIcon=mxgraph.aws4.group_security_group;grStroke=0;verticalAlign=top;align=left;spacingLeft=30;dashed=0;fillColor=none;" parent="1" vertex="1">
          <mxGeometry x="-1160" y="10" width="1160" height="600" as="geometry" />
        </mxCell>
        <mxCell id="2V_TngJ9tmzImwKuBUhW-25" style="edgeStyle=orthogonalEdgeStyle;rounded=0;orthogonalLoop=1;jettySize=auto;html=1;" edge="1" parent="g16Wq1d4LQn0EkF3N1o3-5" source="2V_TngJ9tmzImwKuBUhW-5" target="crF3Aw2DtqwCxkJPiTV9-27">
          <mxGeometry relative="1" as="geometry" />
        </mxCell>
        <mxCell id="2V_TngJ9tmzImwKuBUhW-26" style="edgeStyle=orthogonalEdgeStyle;rounded=0;orthogonalLoop=1;jettySize=auto;html=1;" edge="1" parent="g16Wq1d4LQn0EkF3N1o3-5" source="2V_TngJ9tmzImwKuBUhW-5" target="2V_TngJ9tmzImwKuBUhW-18">
          <mxGeometry relative="1" as="geometry">
            <Array as="points">
              <mxPoint x="360" y="430" />
              <mxPoint x="560" y="430" />
            </Array>
          </mxGeometry>
        </mxCell>
        <mxCell id="2V_TngJ9tmzImwKuBUhW-5" value="Lamda Functions for each job" style="points=[[0,0],[0.25,0],[0.5,0],[0.75,0],[1,0],[1,0.25],[1,0.5],[1,0.75],[1,1],[0.75,1],[0.5,1],[0.25,1],[0,1],[0,0.75],[0,0.5],[0,0.25]];outlineConnect=0;gradientColor=none;html=1;whiteSpace=wrap;fontSize=12;fontStyle=0;container=1;pointerEvents=0;collapsible=0;recursiveResize=0;shape=mxgraph.aws4.group;grIcon=mxgraph.aws4.group_security_group;grStroke=0;strokeColor=#00A4A6;fillColor=#E6F6F7;verticalAlign=top;align=left;spacingLeft=30;fontColor=#147EBA;dashed=0;" vertex="1" parent="g16Wq1d4LQn0EkF3N1o3-5">
          <mxGeometry x="280" y="30" width="160" height="360" as="geometry" />
        </mxCell>
        <mxCell id="crF3Aw2DtqwCxkJPiTV9-29" value="AWS Lambda" style="sketch=0;outlineConnect=0;fontColor=#232F3E;gradientColor=none;strokeColor=#ffffff;fillColor=#232F3E;dashed=0;verticalLabelPosition=middle;verticalAlign=bottom;align=center;html=1;whiteSpace=wrap;fontSize=10;fontStyle=1;spacing=3;shape=mxgraph.aws4.productIcon;prIcon=mxgraph.aws4.lambda;" parent="2V_TngJ9tmzImwKuBUhW-5" vertex="1">
          <mxGeometry x="40" y="40" width="80" height="100" as="geometry" />
        </mxCell>
        <mxCell id="2V_TngJ9tmzImwKuBUhW-23" value="" style="group" vertex="1" connectable="0" parent="2V_TngJ9tmzImwKuBUhW-5">
          <mxGeometry x="40" y="235" width="80" height="110" as="geometry" />
        </mxCell>
        <mxCell id="2V_TngJ9tmzImwKuBUhW-21" value="Event (time-&#xa;based)" style="sketch=0;outlineConnect=0;fontColor=#232F3E;gradientColor=none;strokeColor=#232F3E;fillColor=#ffffff;dashed=0;verticalLabelPosition=bottom;verticalAlign=top;align=center;html=1;fontSize=12;fontStyle=0;aspect=fixed;shape=mxgraph.aws4.resourceIcon;resIcon=mxgraph.aws4.event_time_based;" vertex="1" parent="2V_TngJ9tmzImwKuBUhW-23">
          <mxGeometry x="10" width="60" height="60" as="geometry" />
        </mxCell>
        <mxCell id="2V_TngJ9tmzImwKuBUhW-22" value="" style="rounded=0;whiteSpace=wrap;html=1;fillColor=none;strokeColor=none;" vertex="1" parent="2V_TngJ9tmzImwKuBUhW-23">
          <mxGeometry width="80" height="110" as="geometry" />
        </mxCell>
        <mxCell id="2V_TngJ9tmzImwKuBUhW-24" value="TRIGGER" style="edgeStyle=orthogonalEdgeStyle;rounded=0;orthogonalLoop=1;jettySize=auto;html=1;" edge="1" parent="2V_TngJ9tmzImwKuBUhW-5" source="2V_TngJ9tmzImwKuBUhW-22" target="crF3Aw2DtqwCxkJPiTV9-29">
          <mxGeometry relative="1" as="geometry" />
        </mxCell>
        <mxCell id="crF3Aw2DtqwCxkJPiTV9-86" value="TRIGGER" style="edgeStyle=orthogonalEdgeStyle;rounded=0;orthogonalLoop=1;jettySize=auto;html=1;fontSize=8;" parent="g16Wq1d4LQn0EkF3N1o3-5" source="crF3Aw2DtqwCxkJPiTV9-12" target="crF3Aw2DtqwCxkJPiTV9-73" edge="1">
          <mxGeometry relative="1" as="geometry" />
        </mxCell>
        <mxCell id="crF3Aw2DtqwCxkJPiTV9-12" value="AWS CodePipeline" style="sketch=0;outlineConnect=0;fontColor=#232F3E;gradientColor=none;strokeColor=#ffffff;fillColor=#232F3E;dashed=0;verticalLabelPosition=middle;verticalAlign=bottom;align=center;html=1;whiteSpace=wrap;fontSize=10;fontStyle=1;spacing=3;shape=mxgraph.aws4.productIcon;prIcon=mxgraph.aws4.codepipeline;" parent="g16Wq1d4LQn0EkF3N1o3-5" vertex="1">
          <mxGeometry x="720" y="279" width="80" height="110" as="geometry" />
        </mxCell>
        <mxCell id="crF3Aw2DtqwCxkJPiTV9-15" value="AWS CodeCommit" style="sketch=0;outlineConnect=0;fontColor=#232F3E;gradientColor=none;strokeColor=#ffffff;fillColor=#232F3E;dashed=0;verticalLabelPosition=middle;verticalAlign=bottom;align=center;html=1;whiteSpace=wrap;fontSize=10;fontStyle=1;spacing=3;shape=mxgraph.aws4.productIcon;prIcon=mxgraph.aws4.codecommit;" parent="g16Wq1d4LQn0EkF3N1o3-5" vertex="1">
          <mxGeometry x="880" y="70" width="80" height="110" as="geometry" />
        </mxCell>
        <mxCell id="crF3Aw2DtqwCxkJPiTV9-42" value="PUSH" style="edgeStyle=orthogonalEdgeStyle;rounded=0;orthogonalLoop=1;jettySize=auto;html=1;fontSize=8;" parent="g16Wq1d4LQn0EkF3N1o3-5" source="crF3Aw2DtqwCxkJPiTV9-39" target="crF3Aw2DtqwCxkJPiTV9-15" edge="1">
          <mxGeometry relative="1" as="geometry">
            <mxPoint as="offset" />
          </mxGeometry>
        </mxCell>
        <mxCell id="crF3Aw2DtqwCxkJPiTV9-47" value="" style="group;fontSize=11;" parent="g16Wq1d4LQn0EkF3N1o3-5" connectable="0" vertex="1">
          <mxGeometry x="1040" y="70" width="80" height="110" as="geometry" />
        </mxCell>
        <mxCell id="crF3Aw2DtqwCxkJPiTV9-39" value="" style="rounded=0;whiteSpace=wrap;html=1;fillColor=none;strokeColor=none;" parent="crF3Aw2DtqwCxkJPiTV9-47" vertex="1">
          <mxGeometry width="80" height="110" as="geometry" />
        </mxCell>
        <mxCell id="crF3Aw2DtqwCxkJPiTV9-26" value="Bitbucket&lt;div&gt;with&lt;/div&gt;&lt;div&gt;Pipeline&lt;/div&gt;" style="image;html=1;image=img/lib/atlassian/Bitbucket_Logo.svg;fontSize=10;" parent="crF3Aw2DtqwCxkJPiTV9-47" vertex="1">
          <mxGeometry x="11.5" y="10" width="57" height="50" as="geometry" />
        </mxCell>
        <mxCell id="crF3Aw2DtqwCxkJPiTV9-48" value="" style="group" parent="g16Wq1d4LQn0EkF3N1o3-5" connectable="0" vertex="1">
          <mxGeometry x="880" y="279" width="80" height="110" as="geometry" />
        </mxCell>
        <mxCell id="crF3Aw2DtqwCxkJPiTV9-28" value="Event (event-&#xa;based)" style="sketch=0;outlineConnect=0;fontColor=#232F3E;gradientColor=none;strokeColor=#232F3E;fillColor=#ffffff;dashed=0;verticalLabelPosition=bottom;verticalAlign=top;align=center;html=1;fontSize=12;fontStyle=0;aspect=fixed;shape=mxgraph.aws4.resourceIcon;resIcon=mxgraph.aws4.event_event_based;" parent="crF3Aw2DtqwCxkJPiTV9-48" vertex="1">
          <mxGeometry x="10" y="10" width="60" height="60" as="geometry" />
        </mxCell>
        <mxCell id="crF3Aw2DtqwCxkJPiTV9-46" value="" style="rounded=0;whiteSpace=wrap;html=1;fillColor=none;strokeColor=none;" parent="crF3Aw2DtqwCxkJPiTV9-48" vertex="1">
          <mxGeometry width="80" height="110" as="geometry" />
        </mxCell>
        <mxCell id="crF3Aw2DtqwCxkJPiTV9-50" value="TRIGGER" style="edgeStyle=orthogonalEdgeStyle;rounded=0;orthogonalLoop=1;jettySize=auto;html=1;fontSize=8;" parent="g16Wq1d4LQn0EkF3N1o3-5" source="crF3Aw2DtqwCxkJPiTV9-46" target="crF3Aw2DtqwCxkJPiTV9-12" edge="1">
          <mxGeometry relative="1" as="geometry" />
        </mxCell>
        <mxCell id="crF3Aw2DtqwCxkJPiTV9-78" value="" style="group" parent="g16Wq1d4LQn0EkF3N1o3-5" connectable="0" vertex="1">
          <mxGeometry x="720" y="70" width="80" height="110" as="geometry" />
        </mxCell>
        <mxCell id="crF3Aw2DtqwCxkJPiTV9-14" value="AWS CodeBuild" style="sketch=0;outlineConnect=0;fontColor=#232F3E;gradientColor=none;strokeColor=#ffffff;fillColor=#232F3E;dashed=0;verticalLabelPosition=middle;verticalAlign=bottom;align=center;html=1;whiteSpace=wrap;fontSize=10;fontStyle=1;spacing=3;shape=mxgraph.aws4.productIcon;prIcon=mxgraph.aws4.codebuild;" parent="crF3Aw2DtqwCxkJPiTV9-78" vertex="1">
          <mxGeometry width="80" height="110" as="geometry" />
        </mxCell>
        <mxCell id="crF3Aw2DtqwCxkJPiTV9-73" value="" style="rounded=0;whiteSpace=wrap;html=1;fillColor=none;strokeColor=none;" parent="crF3Aw2DtqwCxkJPiTV9-78" vertex="1">
          <mxGeometry width="80" height="110" as="geometry" />
        </mxCell>
        <mxCell id="crF3Aw2DtqwCxkJPiTV9-79" style="edgeStyle=orthogonalEdgeStyle;rounded=0;orthogonalLoop=1;jettySize=auto;html=1;" parent="g16Wq1d4LQn0EkF3N1o3-5" source="crF3Aw2DtqwCxkJPiTV9-73" target="crF3Aw2DtqwCxkJPiTV9-15" edge="1">
          <mxGeometry relative="1" as="geometry" />
        </mxCell>
        <mxCell id="crF3Aw2DtqwCxkJPiTV9-81" value="PUSH IMAGE" style="edgeStyle=orthogonalEdgeStyle;rounded=0;orthogonalLoop=1;jettySize=auto;html=1;fontSize=8;" parent="g16Wq1d4LQn0EkF3N1o3-5" source="crF3Aw2DtqwCxkJPiTV9-73" target="crF3Aw2DtqwCxkJPiTV9-76" edge="1">
          <mxGeometry x="-0.2889" relative="1" as="geometry">
            <mxPoint as="offset" />
          </mxGeometry>
        </mxCell>
        <mxCell id="crF3Aw2DtqwCxkJPiTV9-88" value="WATCH" style="edgeStyle=orthogonalEdgeStyle;rounded=0;orthogonalLoop=1;jettySize=auto;html=1;fontSize=8;" parent="g16Wq1d4LQn0EkF3N1o3-5" source="crF3Aw2DtqwCxkJPiTV9-46" target="crF3Aw2DtqwCxkJPiTV9-15" edge="1">
          <mxGeometry relative="1" as="geometry">
            <mxPoint as="offset" />
          </mxGeometry>
        </mxCell>
        <mxCell id="2V_TngJ9tmzImwKuBUhW-6" value="Customer AWS Account" style="points=[[0,0],[0.25,0],[0.5,0],[0.75,0],[1,0],[1,0.25],[1,0.5],[1,0.75],[1,1],[0.75,1],[0.5,1],[0.25,1],[0,1],[0,0.75],[0,0.5],[0,0.25]];outlineConnect=0;gradientColor=none;html=1;whiteSpace=wrap;fontSize=12;fontStyle=0;container=1;pointerEvents=0;collapsible=0;recursiveResize=0;shape=mxgraph.aws4.group;grIcon=mxgraph.aws4.group_account;strokeColor=#CD2264;fillColor=none;verticalAlign=top;align=left;spacingLeft=30;fontColor=#CD2264;dashed=0;" vertex="1" parent="g16Wq1d4LQn0EkF3N1o3-5">
          <mxGeometry x="40" y="230" width="160" height="160" as="geometry" />
        </mxCell>
        <mxCell id="2V_TngJ9tmzImwKuBUhW-7" value="Amazon S3" style="sketch=0;outlineConnect=0;fontColor=#232F3E;gradientColor=none;strokeColor=#ffffff;fillColor=#232F3E;dashed=0;verticalLabelPosition=middle;verticalAlign=bottom;align=center;html=1;whiteSpace=wrap;fontSize=10;fontStyle=1;spacing=3;shape=mxgraph.aws4.productIcon;prIcon=mxgraph.aws4.s3;" vertex="1" parent="2V_TngJ9tmzImwKuBUhW-6">
          <mxGeometry x="40" y="40" width="80" height="100" as="geometry" />
        </mxCell>
        <mxCell id="2V_TngJ9tmzImwKuBUhW-8" value="Customer AWS Account" style="points=[[0,0],[0.25,0],[0.5,0],[0.75,0],[1,0],[1,0.25],[1,0.5],[1,0.75],[1,1],[0.75,1],[0.5,1],[0.25,1],[0,1],[0,0.75],[0,0.5],[0,0.25]];outlineConnect=0;gradientColor=none;html=1;whiteSpace=wrap;fontSize=12;fontStyle=0;container=1;pointerEvents=0;collapsible=0;recursiveResize=0;shape=mxgraph.aws4.group;grIcon=mxgraph.aws4.group_account;strokeColor=#CD2264;fillColor=none;verticalAlign=top;align=left;spacingLeft=30;fontColor=#CD2264;dashed=0;" vertex="1" parent="g16Wq1d4LQn0EkF3N1o3-5">
          <mxGeometry x="40" y="430" width="160" height="160" as="geometry" />
        </mxCell>
        <mxCell id="2V_TngJ9tmzImwKuBUhW-9" value="Amazon S3" style="sketch=0;outlineConnect=0;fontColor=#232F3E;gradientColor=none;strokeColor=#ffffff;fillColor=#232F3E;dashed=0;verticalLabelPosition=middle;verticalAlign=bottom;align=center;html=1;whiteSpace=wrap;fontSize=10;fontStyle=1;spacing=3;shape=mxgraph.aws4.productIcon;prIcon=mxgraph.aws4.s3;" vertex="1" parent="2V_TngJ9tmzImwKuBUhW-8">
          <mxGeometry x="40" y="40" width="80" height="100" as="geometry" />
        </mxCell>
        <mxCell id="2V_TngJ9tmzImwKuBUhW-10" value="Payer AWS Account" style="points=[[0,0],[0.25,0],[0.5,0],[0.75,0],[1,0],[1,0.25],[1,0.5],[1,0.75],[1,1],[0.75,1],[0.5,1],[0.25,1],[0,1],[0,0.75],[0,0.5],[0,0.25]];outlineConnect=0;gradientColor=none;html=1;whiteSpace=wrap;fontSize=12;fontStyle=0;container=1;pointerEvents=0;collapsible=0;recursiveResize=0;shape=mxgraph.aws4.group;grIcon=mxgraph.aws4.group_account;strokeColor=#CD2264;fillColor=none;verticalAlign=top;align=left;spacingLeft=30;fontColor=#CD2264;dashed=0;" vertex="1" parent="g16Wq1d4LQn0EkF3N1o3-5">
          <mxGeometry x="40" y="30" width="160" height="160" as="geometry" />
        </mxCell>
        <mxCell id="2V_TngJ9tmzImwKuBUhW-11" value="Amazon S3" style="sketch=0;outlineConnect=0;fontColor=#232F3E;gradientColor=none;strokeColor=#ffffff;fillColor=#232F3E;dashed=0;verticalLabelPosition=middle;verticalAlign=bottom;align=center;html=1;whiteSpace=wrap;fontSize=10;fontStyle=1;spacing=3;shape=mxgraph.aws4.productIcon;prIcon=mxgraph.aws4.s3;" vertex="1" parent="2V_TngJ9tmzImwKuBUhW-10">
          <mxGeometry x="40" y="40" width="80" height="100" as="geometry" />
        </mxCell>
        <mxCell id="2V_TngJ9tmzImwKuBUhW-15" style="edgeStyle=orthogonalEdgeStyle;rounded=0;orthogonalLoop=1;jettySize=auto;html=1;" edge="1" parent="g16Wq1d4LQn0EkF3N1o3-5" source="crF3Aw2DtqwCxkJPiTV9-29" target="2V_TngJ9tmzImwKuBUhW-11">
          <mxGeometry relative="1" as="geometry" />
        </mxCell>
        <mxCell id="2V_TngJ9tmzImwKuBUhW-27" value="GetObject" style="edgeLabel;html=1;align=center;verticalAlign=middle;resizable=0;points=[];" vertex="1" connectable="0" parent="2V_TngJ9tmzImwKuBUhW-15">
          <mxGeometry x="0.2338" y="-2" relative="1" as="geometry">
            <mxPoint x="-12" y="2" as="offset" />
          </mxGeometry>
        </mxCell>
        <mxCell id="2V_TngJ9tmzImwKuBUhW-16" style="edgeStyle=orthogonalEdgeStyle;rounded=0;orthogonalLoop=1;jettySize=auto;html=1;" edge="1" parent="g16Wq1d4LQn0EkF3N1o3-5" source="crF3Aw2DtqwCxkJPiTV9-29" target="2V_TngJ9tmzImwKuBUhW-7">
          <mxGeometry relative="1" as="geometry">
            <Array as="points">
              <mxPoint x="260" y="120" />
              <mxPoint x="260" y="320" />
            </Array>
          </mxGeometry>
        </mxCell>
        <mxCell id="2V_TngJ9tmzImwKuBUhW-28" value="PutObject" style="edgeLabel;html=1;align=center;verticalAlign=middle;resizable=0;points=[];" vertex="1" connectable="0" parent="2V_TngJ9tmzImwKuBUhW-16">
          <mxGeometry x="0.7052" y="-2" relative="1" as="geometry">
            <mxPoint x="-3" y="2" as="offset" />
          </mxGeometry>
        </mxCell>
        <mxCell id="2V_TngJ9tmzImwKuBUhW-17" style="edgeStyle=orthogonalEdgeStyle;rounded=0;orthogonalLoop=1;jettySize=auto;html=1;" edge="1" parent="g16Wq1d4LQn0EkF3N1o3-5" source="crF3Aw2DtqwCxkJPiTV9-29" target="2V_TngJ9tmzImwKuBUhW-9">
          <mxGeometry relative="1" as="geometry">
            <Array as="points">
              <mxPoint x="260" y="120" />
              <mxPoint x="260" y="520" />
            </Array>
          </mxGeometry>
        </mxCell>
        <mxCell id="2V_TngJ9tmzImwKuBUhW-29" value="PutObject" style="edgeLabel;html=1;align=center;verticalAlign=middle;resizable=0;points=[];" vertex="1" connectable="0" parent="2V_TngJ9tmzImwKuBUhW-17">
          <mxGeometry x="0.8189" y="4" relative="1" as="geometry">
            <mxPoint y="-4" as="offset" />
          </mxGeometry>
        </mxCell>
        <mxCell id="crF3Aw2DtqwCxkJPiTV9-27" value="Amazon CloudWatch" style="sketch=0;outlineConnect=0;fontColor=#232F3E;gradientColor=none;strokeColor=#ffffff;fillColor=#232F3E;dashed=0;verticalLabelPosition=middle;verticalAlign=bottom;align=center;html=1;whiteSpace=wrap;fontSize=10;fontStyle=1;spacing=3;shape=mxgraph.aws4.productIcon;prIcon=mxgraph.aws4.cloudwatch;" parent="g16Wq1d4LQn0EkF3N1o3-5" vertex="1">
          <mxGeometry x="320" y="470" width="80" height="110" as="geometry" />
        </mxCell>
        <mxCell id="crF3Aw2DtqwCxkJPiTV9-77" value="" style="group" parent="g16Wq1d4LQn0EkF3N1o3-5" connectable="0" vertex="1">
          <mxGeometry x="520" y="70" width="80" height="110" as="geometry" />
        </mxCell>
        <mxCell id="crF3Aw2DtqwCxkJPiTV9-76" value="" style="rounded=0;whiteSpace=wrap;html=1;fillColor=none;strokeColor=none;" parent="crF3Aw2DtqwCxkJPiTV9-77" vertex="1">
          <mxGeometry width="80" height="110" as="geometry" />
        </mxCell>
        <mxCell id="crF3Aw2DtqwCxkJPiTV9-60" value="Amazon ECR" style="sketch=0;outlineConnect=0;fontColor=#232F3E;gradientColor=none;strokeColor=#ffffff;fillColor=#232F3E;dashed=0;verticalLabelPosition=middle;verticalAlign=bottom;align=center;html=1;whiteSpace=wrap;fontSize=10;fontStyle=1;spacing=3;shape=mxgraph.aws4.productIcon;prIcon=mxgraph.aws4.ecr;" parent="crF3Aw2DtqwCxkJPiTV9-77" vertex="1">
          <mxGeometry width="80" height="100" as="geometry" />
        </mxCell>
        <mxCell id="2V_TngJ9tmzImwKuBUhW-4" style="edgeStyle=orthogonalEdgeStyle;rounded=0;orthogonalLoop=1;jettySize=auto;html=1;" edge="1" parent="g16Wq1d4LQn0EkF3N1o3-5" source="crF3Aw2DtqwCxkJPiTV9-29" target="crF3Aw2DtqwCxkJPiTV9-60">
          <mxGeometry relative="1" as="geometry" />
        </mxCell>
        <mxCell id="2V_TngJ9tmzImwKuBUhW-18" value="AWS Secrets Manager" style="sketch=0;outlineConnect=0;fontColor=#232F3E;gradientColor=none;strokeColor=#ffffff;fillColor=#232F3E;dashed=0;verticalLabelPosition=middle;verticalAlign=bottom;align=center;html=1;whiteSpace=wrap;fontSize=10;fontStyle=1;spacing=3;shape=mxgraph.aws4.productIcon;prIcon=mxgraph.aws4.secrets_manager;" vertex="1" parent="g16Wq1d4LQn0EkF3N1o3-5">
          <mxGeometry x="520" y="471" width="80" height="110" as="geometry" />
        </mxCell>
      </root>
    </mxGraphModel>
  </diagram>
</mxfile>
